<mxfile host="app.diagrams.net" agent="Mozilla/5.0 (Windows NT 10.0; Win64; x64; rv:131.0) Gecko/20100101 Firefox/131.0" version="24.8.3">
  <diagram name="Page-1" id="LcEwltNvADzyznTi_vnT">
    <mxGraphModel dx="1434" dy="753" grid="1" gridSize="10" guides="1" tooltips="1" connect="1" arrows="1" fold="1" page="1" pageScale="1" pageWidth="1169" pageHeight="827" math="0" shadow="0">
      <root>
        <mxCell id="0" />
        <mxCell id="1" parent="0" />
        <mxCell id="qHg0UKgb_-EXI1ZvM39b-2" value="" style="rounded=0;whiteSpace=wrap;html=1;fillColor=none;" parent="1" vertex="1">
          <mxGeometry x="280" y="80" width="720" height="440" as="geometry" />
        </mxCell>
        <mxCell id="qHg0UKgb_-EXI1ZvM39b-3" value="Remove item" style="ellipse;whiteSpace=wrap;html=1;" parent="1" vertex="1">
          <mxGeometry x="420" y="414" width="110" height="60" as="geometry" />
        </mxCell>
        <mxCell id="qHg0UKgb_-EXI1ZvM39b-18" style="edgeStyle=orthogonalEdgeStyle;rounded=0;orthogonalLoop=1;jettySize=auto;html=1;exitX=1;exitY=1;exitDx=0;exitDy=0;entryX=0;entryY=0.5;entryDx=0;entryDy=0;dashed=1;" parent="1" source="qHg0UKgb_-EXI1ZvM39b-4" target="qHg0UKgb_-EXI1ZvM39b-16" edge="1">
          <mxGeometry relative="1" as="geometry">
            <Array as="points">
              <mxPoint x="514" y="384" />
            </Array>
          </mxGeometry>
        </mxCell>
        <mxCell id="qHg0UKgb_-EXI1ZvM39b-40" value="&amp;lt;&amp;lt;include&amp;gt;&amp;gt;" style="edgeLabel;html=1;align=center;verticalAlign=middle;resizable=0;points=[];" parent="qHg0UKgb_-EXI1ZvM39b-18" vertex="1" connectable="0">
          <mxGeometry x="-0.0075" relative="1" as="geometry">
            <mxPoint x="5" y="-14" as="offset" />
          </mxGeometry>
        </mxCell>
        <mxCell id="qHg0UKgb_-EXI1ZvM39b-4" value="Add item" style="ellipse;whiteSpace=wrap;html=1;" parent="1" vertex="1">
          <mxGeometry x="420" y="310" width="110" height="60" as="geometry" />
        </mxCell>
        <mxCell id="qHg0UKgb_-EXI1ZvM39b-13" style="edgeStyle=orthogonalEdgeStyle;rounded=0;orthogonalLoop=1;jettySize=auto;html=1;exitX=0.5;exitY=1;exitDx=0;exitDy=0;entryX=0.5;entryY=0;entryDx=0;entryDy=0;dashed=1;" parent="1" source="qHg0UKgb_-EXI1ZvM39b-5" target="qHg0UKgb_-EXI1ZvM39b-4" edge="1">
          <mxGeometry relative="1" as="geometry" />
        </mxCell>
        <mxCell id="qHg0UKgb_-EXI1ZvM39b-34" value="&amp;lt;&amp;lt;extend&amp;gt;&amp;gt;" style="edgeLabel;html=1;align=center;verticalAlign=middle;resizable=0;points=[];" parent="qHg0UKgb_-EXI1ZvM39b-13" vertex="1" connectable="0">
          <mxGeometry x="0.0222" y="2" relative="1" as="geometry">
            <mxPoint as="offset" />
          </mxGeometry>
        </mxCell>
        <mxCell id="qHg0UKgb_-EXI1ZvM39b-5" value="Edit item" style="ellipse;whiteSpace=wrap;html=1;" parent="1" vertex="1">
          <mxGeometry x="420" y="160" width="110" height="60" as="geometry" />
        </mxCell>
        <mxCell id="qHg0UKgb_-EXI1ZvM39b-7" style="edgeStyle=orthogonalEdgeStyle;rounded=0;orthogonalLoop=1;jettySize=auto;html=1;entryX=0;entryY=0.5;entryDx=0;entryDy=0;endArrow=none;endFill=0;" parent="1" source="qHg0UKgb_-EXI1ZvM39b-6" target="qHg0UKgb_-EXI1ZvM39b-3" edge="1">
          <mxGeometry relative="1" as="geometry">
            <Array as="points">
              <mxPoint x="310" y="340" />
              <mxPoint x="310" y="444" />
            </Array>
          </mxGeometry>
        </mxCell>
        <mxCell id="qHg0UKgb_-EXI1ZvM39b-10" style="edgeStyle=orthogonalEdgeStyle;rounded=0;orthogonalLoop=1;jettySize=auto;html=1;exitX=0.5;exitY=0.5;exitDx=0;exitDy=0;exitPerimeter=0;entryX=0;entryY=0.5;entryDx=0;entryDy=0;endArrow=none;endFill=0;" parent="1" source="qHg0UKgb_-EXI1ZvM39b-6" target="qHg0UKgb_-EXI1ZvM39b-5" edge="1">
          <mxGeometry relative="1" as="geometry" />
        </mxCell>
        <mxCell id="qHg0UKgb_-EXI1ZvM39b-12" style="edgeStyle=orthogonalEdgeStyle;rounded=0;orthogonalLoop=1;jettySize=auto;html=1;exitX=0.5;exitY=0.5;exitDx=0;exitDy=0;exitPerimeter=0;entryX=0;entryY=0.5;entryDx=0;entryDy=0;endArrow=none;endFill=0;" parent="1" source="qHg0UKgb_-EXI1ZvM39b-6" target="qHg0UKgb_-EXI1ZvM39b-4" edge="1">
          <mxGeometry relative="1" as="geometry" />
        </mxCell>
        <mxCell id="qHg0UKgb_-EXI1ZvM39b-6" value="User" style="shape=umlActor;verticalLabelPosition=bottom;verticalAlign=top;html=1;outlineConnect=0;" parent="1" vertex="1">
          <mxGeometry x="220" y="310" width="30" height="60" as="geometry" />
        </mxCell>
        <mxCell id="qHg0UKgb_-EXI1ZvM39b-21" style="edgeStyle=orthogonalEdgeStyle;rounded=0;orthogonalLoop=1;jettySize=auto;html=1;exitX=0;exitY=0.5;exitDx=0;exitDy=0;entryX=1;entryY=0;entryDx=0;entryDy=0;dashed=1;" parent="1" source="qHg0UKgb_-EXI1ZvM39b-14" target="qHg0UKgb_-EXI1ZvM39b-5" edge="1">
          <mxGeometry relative="1" as="geometry" />
        </mxCell>
        <mxCell id="qHg0UKgb_-EXI1ZvM39b-38" value="&amp;lt;&amp;lt;extend&amp;gt;&amp;gt;" style="edgeLabel;html=1;align=center;verticalAlign=middle;resizable=0;points=[];" parent="qHg0UKgb_-EXI1ZvM39b-21" vertex="1" connectable="0">
          <mxGeometry x="0.04" y="-1" relative="1" as="geometry">
            <mxPoint y="-8" as="offset" />
          </mxGeometry>
        </mxCell>
        <mxCell id="qHg0UKgb_-EXI1ZvM39b-14" value="Edit tags" style="ellipse;whiteSpace=wrap;html=1;" parent="1" vertex="1">
          <mxGeometry x="640" y="140" width="110" height="60" as="geometry" />
        </mxCell>
        <mxCell id="qHg0UKgb_-EXI1ZvM39b-15" value="&lt;div&gt;Edit text&lt;/div&gt;&lt;div&gt;description&lt;/div&gt;" style="ellipse;whiteSpace=wrap;html=1;" parent="1" vertex="1">
          <mxGeometry x="640" y="230" width="110" height="60" as="geometry" />
        </mxCell>
        <mxCell id="qHg0UKgb_-EXI1ZvM39b-19" style="edgeStyle=orthogonalEdgeStyle;rounded=0;orthogonalLoop=1;jettySize=auto;html=1;exitX=0;exitY=0;exitDx=0;exitDy=0;entryX=1;entryY=1;entryDx=0;entryDy=0;dashed=1;" parent="1" source="qHg0UKgb_-EXI1ZvM39b-16" target="qHg0UKgb_-EXI1ZvM39b-5" edge="1">
          <mxGeometry relative="1" as="geometry">
            <Array as="points">
              <mxPoint x="656" y="340" />
              <mxPoint x="560" y="340" />
              <mxPoint x="560" y="211" />
            </Array>
          </mxGeometry>
        </mxCell>
        <mxCell id="qHg0UKgb_-EXI1ZvM39b-35" value="&amp;lt;&amp;lt;extend&amp;gt;&amp;gt;" style="edgeLabel;html=1;align=center;verticalAlign=middle;resizable=0;points=[];" parent="qHg0UKgb_-EXI1ZvM39b-19" vertex="1" connectable="0">
          <mxGeometry x="0.0408" y="-2" relative="1" as="geometry">
            <mxPoint as="offset" />
          </mxGeometry>
        </mxCell>
        <mxCell id="qHg0UKgb_-EXI1ZvM39b-16" value="Edit photo" style="ellipse;whiteSpace=wrap;html=1;" parent="1" vertex="1">
          <mxGeometry x="640" y="354" width="110" height="60" as="geometry" />
        </mxCell>
        <mxCell id="qHg0UKgb_-EXI1ZvM39b-20" style="edgeStyle=orthogonalEdgeStyle;rounded=0;orthogonalLoop=1;jettySize=auto;html=1;exitX=0;exitY=0.5;exitDx=0;exitDy=0;entryX=1;entryY=0.4;entryDx=0;entryDy=0;entryPerimeter=0;dashed=1;" parent="1" source="qHg0UKgb_-EXI1ZvM39b-15" target="qHg0UKgb_-EXI1ZvM39b-5" edge="1">
          <mxGeometry relative="1" as="geometry">
            <Array as="points">
              <mxPoint x="600" y="260" />
              <mxPoint x="600" y="184" />
            </Array>
          </mxGeometry>
        </mxCell>
        <mxCell id="qHg0UKgb_-EXI1ZvM39b-37" value="&amp;lt;&amp;lt;extend&amp;gt;&amp;gt;" style="edgeLabel;html=1;align=center;verticalAlign=middle;resizable=0;points=[];" parent="qHg0UKgb_-EXI1ZvM39b-20" vertex="1" connectable="0">
          <mxGeometry x="-0.129" y="-3" relative="1" as="geometry">
            <mxPoint as="offset" />
          </mxGeometry>
        </mxCell>
        <mxCell id="qHg0UKgb_-EXI1ZvM39b-25" style="edgeStyle=orthogonalEdgeStyle;rounded=0;orthogonalLoop=1;jettySize=auto;html=1;exitX=0;exitY=0.5;exitDx=0;exitDy=0;entryX=1;entryY=0.5;entryDx=0;entryDy=0;dashed=1;" parent="1" source="qHg0UKgb_-EXI1ZvM39b-22" target="qHg0UKgb_-EXI1ZvM39b-14" edge="1">
          <mxGeometry relative="1" as="geometry" />
        </mxCell>
        <mxCell id="qHg0UKgb_-EXI1ZvM39b-39" value="&amp;lt;&amp;lt;extend&amp;gt;&amp;gt;" style="edgeLabel;html=1;align=center;verticalAlign=middle;resizable=0;points=[];" parent="qHg0UKgb_-EXI1ZvM39b-25" vertex="1" connectable="0">
          <mxGeometry x="0.05" y="3" relative="1" as="geometry">
            <mxPoint x="8" y="-13" as="offset" />
          </mxGeometry>
        </mxCell>
        <mxCell id="qHg0UKgb_-EXI1ZvM39b-22" value="Create new tag" style="ellipse;whiteSpace=wrap;html=1;" parent="1" vertex="1">
          <mxGeometry x="860" y="140" width="110" height="60" as="geometry" />
        </mxCell>
        <mxCell id="qHg0UKgb_-EXI1ZvM39b-26" style="edgeStyle=orthogonalEdgeStyle;rounded=0;orthogonalLoop=1;jettySize=auto;html=1;exitX=0;exitY=1;exitDx=0;exitDy=0;entryX=1;entryY=0;entryDx=0;entryDy=0;" parent="1" source="qHg0UKgb_-EXI1ZvM39b-23" target="qHg0UKgb_-EXI1ZvM39b-16" edge="1">
          <mxGeometry relative="1" as="geometry" />
        </mxCell>
        <mxCell id="qHg0UKgb_-EXI1ZvM39b-23" value="&lt;div&gt;Choose photo&lt;/div&gt;&lt;div&gt;from gallery&lt;br&gt;&lt;/div&gt;" style="ellipse;whiteSpace=wrap;html=1;" parent="1" vertex="1">
          <mxGeometry x="860" y="280" width="110" height="60" as="geometry" />
        </mxCell>
        <mxCell id="qHg0UKgb_-EXI1ZvM39b-27" style="edgeStyle=orthogonalEdgeStyle;rounded=0;orthogonalLoop=1;jettySize=auto;html=1;exitX=0;exitY=0;exitDx=0;exitDy=0;entryX=1;entryY=1;entryDx=0;entryDy=0;" parent="1" source="qHg0UKgb_-EXI1ZvM39b-24" target="qHg0UKgb_-EXI1ZvM39b-16" edge="1">
          <mxGeometry relative="1" as="geometry" />
        </mxCell>
        <mxCell id="qHg0UKgb_-EXI1ZvM39b-24" value="Take photo" style="ellipse;whiteSpace=wrap;html=1;" parent="1" vertex="1">
          <mxGeometry x="860" y="430" width="110" height="60" as="geometry" />
        </mxCell>
        <mxCell id="qHg0UKgb_-EXI1ZvM39b-32" style="edgeStyle=orthogonalEdgeStyle;rounded=0;orthogonalLoop=1;jettySize=auto;html=1;exitX=0.5;exitY=0.5;exitDx=0;exitDy=0;exitPerimeter=0;entryX=1;entryY=0.5;entryDx=0;entryDy=0;endArrow=none;endFill=0;" parent="1" source="qHg0UKgb_-EXI1ZvM39b-28" target="qHg0UKgb_-EXI1ZvM39b-23" edge="1">
          <mxGeometry relative="1" as="geometry" />
        </mxCell>
        <mxCell id="qHg0UKgb_-EXI1ZvM39b-28" value="&lt;div&gt;Local File System&lt;/div&gt;" style="shape=umlActor;verticalLabelPosition=bottom;verticalAlign=top;html=1;outlineConnect=0;" parent="1" vertex="1">
          <mxGeometry x="1040" y="280" width="30" height="60" as="geometry" />
        </mxCell>
        <mxCell id="qHg0UKgb_-EXI1ZvM39b-33" style="edgeStyle=orthogonalEdgeStyle;rounded=0;orthogonalLoop=1;jettySize=auto;html=1;exitX=0.5;exitY=0.5;exitDx=0;exitDy=0;exitPerimeter=0;entryX=1;entryY=0.5;entryDx=0;entryDy=0;endArrow=none;endFill=0;" parent="1" source="qHg0UKgb_-EXI1ZvM39b-29" target="qHg0UKgb_-EXI1ZvM39b-24" edge="1">
          <mxGeometry relative="1" as="geometry" />
        </mxCell>
        <mxCell id="qHg0UKgb_-EXI1ZvM39b-29" value="Camera" style="shape=umlActor;verticalLabelPosition=bottom;verticalAlign=top;html=1;outlineConnect=0;" parent="1" vertex="1">
          <mxGeometry x="1040" y="430" width="30" height="60" as="geometry" />
        </mxCell>
        <mxCell id="qHg0UKgb_-EXI1ZvM39b-31" value="Item Management" style="text;html=1;align=center;verticalAlign=middle;whiteSpace=wrap;rounded=0;fontStyle=1;fontSize=18;" parent="1" vertex="1">
          <mxGeometry x="560" y="80" width="160" height="40" as="geometry" />
        </mxCell>
      </root>
    </mxGraphModel>
  </diagram>
</mxfile>
